# AST/ASF file generated using VICON BodyLanguage
# -----------------------------------------------
:version 1.10
:name VICON
:units
  mass 1.0
  length 0.45
  angle deg
:documentation
   .ast/.asf automatically generated from VICON data using
   VICON BodyBuilder and BodyLanguage model FoxedUp or BRILLIANT.MOD
:root
   order TX TY TZ RX RY RZ
   axis XYZ
   position 0 0 0  
   orientation 0 0 0 
:bonedata
  begin
     id 1 
     name lhipjoint
     direction 0.576517 -0.752066 0.319413 
     length 2.45433 
     axis 0 0 0  XYZ
  end
  begin
     id 2 
     name lfemur
     direction 0.34202 -0.939693 0  
     length 7.54459  
     axis 0 0 20  XYZ
    dof rx ry rz
    limits (-160.0 20.0)
           (-70.0 70.0)
           (-60.0 70.0)
  end
  begin
     id 3 
     name ltibia
     direction 0.34202 -0.939693 0   
     length 7.73986   
     axis 0 0 20   XYZ
    dof rx
    limits (-10.0 170.0)
  end
  begin
     id 4 
     name lfoot
     direction 0.090693 -0.249177 0.964202   
     length 2.28437   
     axis -90 7.62852e-016 20   XYZ
    dof rx rz
    limits (-45.0 90.0)
           (-70.0 20.0)
  end
  begin
     id 5 
     name ltoes
     direction 1.5356e-011 -4.21928e-011 1   
     length 1.14243   
     axis -90 7.62852e-016 20   XYZ
    dof rx
    limits (-90.0 20.0)
  end
  begin
     id 6 
     name rhipjoint
     direction -0.573937 -0.753736 0.320122   
     length 2.44889  
     axis 0 0 0  XYZ 
  end
  begin
     id 7 
     name rfemur
     direction -0.34202 -0.939693 0   
     length 7.50166   
     axis 0 0 -20   XYZ
    dof rx ry rz
    limits (-160.0 20.0)
           (-70.0 70.0)
           (-70.0 60.0)
  end
  begin
     id 8 
     name rtibia
     direction -0.34202 -0.939693 0   
     length 7.54266   
     axis 0 0 -20   XYZ
    dof rx
    limits (-10.0 170.0)
 end
 begin
     id 9 
     name rfoot
     direction -0.114017 -0.31326 0.942798   
     length 2.34212  
     axis -90 -7.62852e-016 -20   XYZ
    dof rx rz
    limits (-45.0 90.0)
           (-20.0 70.0)
  end
  begin
     id 10 
     name rtoes
     direction -1.53557e-011 -4.21867e-011 1   
     length 1.16246   
     axis -90 -7.62852e-016 -20   XYZ
    dof rx
    limits (-90.0 20.0)
  end
  begin
     id 11 
     name lowerback
     direction -0.0228371 0.999155 -0.034167   
     length 2.0537   
     axis 0 0 0   XYZ
    dof rx ry rz
    limits (-20.0 45.0)
           (-30.0 30.0)
           (-30.0 30.0)
  end
  begin
     id 12 
     name upperback
     direction 0.0198981 0.999794 0.00389455   
     length 2.05302   
     axis 0 0 0   XYZ
    dof rx ry rz
    limits (-20.0 45.0)
           (-30.0 30.0)
           (-30.0 30.0)
  end
  begin
     id 13 
     name thorax
     direction 0.0304566 0.99935 0.0192987   
     length 2.05315   
     axis 0 0 0   XYZ
    dof rx ry rz
    limits (-20.0 45.0)
           (-30.0 30.0)
           (-30.0 30.0)
  end
  begin
     id 14 
     name lowerneck
     direction -0.0196762 0.99417 0.106017   
     length 1.82056   
     axis 0 0 0   XYZ
    dof rx ry rz
    limits (-20.0 45.0)
           (-30.0 30.0)
           (-30.0 30.0)
  end
  begin
     id 15 
     name upperneck
     direction 0.00517787 0.9802 -0.197944   
     length 1.83835   
     axis 0 0 0   XYZ
    dof rx ry rz
    limits (-20.0 45.0)
           (-30.0 30.0)
           (-30.0 30.0)
  end
  begin
     id 16
     name head
     direction 0.00211419 0.996945 -0.078081  
     length 1.85629  
     axis 0 0 0   XYZ
    dof rx ry rz
    limits (-20.0 45.0)
           (-30.0 30.0)
           (-30.0 30.0)
  end
  begin
     id 17 
     name lclavicle
     direction 0.930001 0.365811 -0.0357824  
     length 3.81961  
     axis 0 0 0   XYZ
    dof ry rz
    limits (-20.0 10.0)
           (0.0 20.0)
  end
  begin
     id 18 
     name lhumerus
     direction 1 -4.48968e-011 -3.06644e-027   
     length 5.14507   
     axis 180 -30 -90   XYZ
    dof rx ry rz
    limits (-60.0 90.0)
           (-90.0 90.0)
           (-90.0 90.0)
  end
  begin
     id 19
     name lradius
     direction 1 -4.48965e-011 9.06925e-028   
     length 3.50646   
     axis 180 -30 -90   XYZ
    dof rx
    limits (-10.0 170.0)
  end
  begin
     id 20
     name lwrist
     direction 1 -4.48957e-011 1.03922e-027   
     length 1.75323   
     axis -2.56395e-016 90 90   XYZ
    dof ry
    limits (-180.0 0.0)
 end
  begin
     id 21 
     name lhand
     direction 1 -4.48967e-011 2.08017e-027   
     length 0.629969   
     axis -1.32723e-015 90 90   XYZ
    dof rx rz
    limits (-90.0 90.0)
           (-45.0 45.0)
  end
  begin
     id 22 
     name lfingers
     direction 1 -4.49089e-011 4.20095e-027   
     length 0.507897   
     axis -2.6545e-015 90 90   XYZ
    dof rx
    limits (0.0 90.0)
  end
  begin
     id 23
     name lthumb
     direction 0.707107 -6.35001e-011 0.707107   
     length 0.729241   
     axis -90 45 5.05613e-014   XYZ
    dof rx rz
    limits (-45.0 45.0)
           (-45.0 45.0)
  end
  begin
     id 24 
     name rclavicle
     direction -0.881882 0.464123 -0.0829113   
     length 3.47515  
     axis 0 0 0   XYZ 
    dof ry rz
    limits (-10.0 20.0)
           (-20.0 0.0)
  end
  begin
     id 25 
     name rhumerus
     direction -1 -4.48961e-011 -1.55672e-027  
     length 5.232   
     axis 180 30 90   XYZ
    dof rx ry rz
    limits (-90.0 60.0)
           (-90.0 90.0)
           (-90.0 90.0)
  end
  begin
     id 26 
     name rradius
     direction -1 -4.48963e-011 6.18178e-029   
     length 3.65641   
     axis 180 30 90   XYZ
    dof rx
    limits (-10.0 170.0)
  end
  begin
     id 27 
     name rwrist
     direction -1 -4.48982e-011 1.04136e-027   
     length 1.8282   
     axis -2.56395e-016 -90 -90   XYZ
    dof ry
    limits (-180.0 0.0)
  end
  begin
     id 28
     name rhand
     direction -1 -4.48929e-011 2.07378e-027   
     length 0.656807   
     axis -1.32723e-015 -90 -90   XYZ
    dof rx rz
    limits (-90.0 90.0)
           (-45.0 45.0)
  end
  begin
     id 29
     name rfingers
     direction -1 -4.489e-011 4.13816e-027   
     length 0.529535   
     axis -2.6545e-015 -90 -90   XYZ
    dof rx
    limits (0.0 90.0)
  end
  begin
     id 30
     name rthumb
     direction -0.707107 -6.34843e-011 0.707107   
     length 0.760309   
     axis -90 -45 -5.05613e-014   XYZ
    dof rx rz
    limits (-45.0 45.0)
           (-45.0 45.0)
  end
:hierarchy
  begin
    root lhipjoint rhipjoint lowerback
    lhipjoint lfemur
    lfemur ltibia
    ltibia lfoot
    lfoot ltoes
    rhipjoint rfemur
    rfemur rtibia
    rtibia rfoot
    rfoot rtoes
    lowerback upperback
    upperback thorax
    thorax lowerneck lclavicle rclavicle
    lowerneck upperneck
    upperneck head
    lclavicle lhumerus
    lhumerus lradius
    lradius lwrist
    lwrist lhand lthumb
    lhand lfingers
    rclavicle rhumerus
    rhumerus rradius
    rradius rwrist
    rwrist rhand rthumb
    rhand rfingers
  end

#!OML:ASF H:\ManfredETheater\Project 1\Capture day 1\Session 1\subject.ASF
:FULLY-SPECIFIED
:DEGREES
31
root 1.65559 15.1213 23.8861 -152.851 -5.15819 -188.666
lowerback 18.6003 -2.90781 -4.12137
upperback -1.38992 -4.81138 0.461068
thorax -11.6273 -2.00468 4.20004
lowerneck -19.786 -2.36475 -4.37127
upperneck -3.25418 -1.2656 2.24495
head 2.43246 -0.0849886 1.43882
rclavicle 6.06293e-014 -2.38542e-015
rhumerus -79.456 5.96947 -82.2763
rradius 75.7454
rwrist -15.6739
rhand -31.7231 12.7372
rfingers 7.12502
rthumb -4.98135 -17.1843
lclavicle 6.06293e-014 -2.38542e-015
lhumerus -8.32626 -20.8552 94.0892
lradius 128.336
lwrist 25.303
lhand -22.4779 -13.1573
lfingers 7.12502
lthumb 3.94733 16.7859
rfemur -81.7786 -9.69403 14.4888
rtibia 88.6009
rfoot -15.966 -9.03523
rtoes -11.9148
lfemur -14.6932 -6.36649 -25.9632
ltibia 47.3795
lfoot -26.6163 -14.5805
ltoes -6.38941
32
root 1.6728 15.1626 23.2313 -153.223 -4.56395 -188.264
lowerback 18.4228 -2.93296 -4.01955
upperback -1.33686 -4.78178 0.70506
thorax -11.4531 -1.99589 4.38727
lowerneck -20.0757 -2.05296 -4.43808
upperneck -3.10201 -0.81493 1.94368
head 2.51876 0.124965 1.39005
rclavicle -8.15017e-015 -2.38542e-015
rhumerus -81.2873 6.58377 -81.6017
rradius 77.0325
rwrist -15.4399
rhand -31.6651 13.0187
rfingers 7.12502
rthumb -4.92538 -16.9041
lclavicle -8.15017e-015 -2.38542e-015
lhumerus -6.5929 -20.6032 92.7533
lradius 131.724
lwrist 25.7718
lhand -22.4922 -13.0198
lfingers 7.12502
lthumb 3.93343 16.9237
rfemur -82.7965 -8.96311 14.5356
rtibia 85.7272
rfoot -16.2508 -8.24571
rtoes -17.7764
lfemur -10.8653 -6.89103 -25.8823
ltibia 44.0286
lfoot -21.4393 -14.1439
ltoes -9.01362
33
root 1.6876 15.2062 22.5689 -153.655 -3.8105 -187.888
lowerback 18.2703 -2.8873 -3.92336
upperback -1.2562 -4.67257 0.877547
thorax -11.2765 -1.9539 4.47843
lowerneck -20.2812 -1.79108 -4.54619
upperneck -2.98673 -0.426329 1.68553
head 2.58126 0.305217 1.358
rclavicle -6.71892e-014 8.34896e-015
rhumerus -82.7296 6.95402 -80.8727
rradius 78.0433
rwrist -15.3238
rhand -31.6081 13.1568
rfingers 7.12502
rthumb -4.87037 -16.7672
lclavicle -6.71892e-014 8.34896e-015
lhumerus -5.27777 -20.2237 91.5118
lradius 134.726
lwrist 25.9149
lhand -22.5155 -13.0423
lfingers 7.12502
lthumb 3.911 16.9016
rfemur -83.4472 -8.22901 14.6193
rtibia 82.786
rfoot -16.407 -7.30972
rtoes -23.5178
lfemur -7.19023 -7.55269 -26.0707
ltibia 40.7598
lfoot -14.7379 -13.3625
ltoes -11.5289
34
root 1.70113 15.2515 21.901 -154.12 -2.93113 -187.577
lowerback 18.1582 -2.77699 -3.8632
upperback -1.16716 -4.49809 0.977454
thorax -11.1244 -1.8813 4.49606
lowerneck -20.4127 -1.57895 -4.68191
upperneck -2.88397 -0.103911 1.45529
head 2.62941 0.452269 1.33449
rclavicle 5.14852e-014 -2.78299e-014
rhumerus -83.7779 7.0904 -80.1044
rradius 78.8048
rwrist -15.3002
rhand -31.5425 13.1563
rfingers 7.12502
rthumb -4.80699 -16.7691
lclavicle 5.14852e-014 -2.78299e-014
lhumerus -4.44598 -19.7894 90.4438
lradius 137.29
lwrist 25.9002
lhand -22.4864 -13.2371
lfingers 7.12502
lthumb 3.93908 16.7062
rfemur -83.7819 -7.54214 14.7563
rtibia 79.8557
rfoot -16.4231 -6.29762
rtoes -28.6352
lfemur -3.75147 -8.35019 -26.5556
ltibia 37.6293
lfoot -6.50949 -12.1838
ltoes -13.2454
35
root 1.71475 15.2965 21.2304 -154.573 -1.95781 -187.362
lowerback 18.0757 -2.61222 -3.87368
upperback -1.08778 -4.27699 1.00735
thorax -11.006 -1.78343 4.46778
lowerneck -20.4935 -1.41107 -4.82648
upperneck -2.77308 0.155717 1.24766
head 2.67398 0.567108 1.31471
rclavicle -1.78906e-015 -3.22031e-014
rhumerus -84.4223 7.0236 -79.3372
rradius 79.3258
rwrist -15.3305
rhand -31.4951 13.0489
rfingers 7.12502
rthumb -4.76121 -16.8776
lclavicle -1.78906e-015 -3.22031e-014
lhumerus -4.13366 -19.3686 89.5934
lradius 139.375
lwrist 25.8118
lhand -22.3671 -13.5437
lfingers 7.12502
lthumb 4.05423 16.3975
rfemur -83.882 -6.94296 14.9645
rtibia 77.0573
rfoot -16.2945 -5.28838
rtoes -32.7705
lfemur -0.697608 -9.23563 -27.3358
ltibia 34.8379
lfoot 2.96008 -10.8232
ltoes -12.8769
36
root 1.73017 15.3401 20.5597 -154.989 -0.947902 -187.264
lowerback 18.0247 -2.41282 -3.97773
upperback -1.02468 -4.03838 0.978553
thorax -10.9245 -1.67185 4.427
lowerneck -20.5622 -1.27449 -4.95285
upperneck -2.64273 0.367459 1.04755
head 2.72501 0.656873 1.29029
rclavicle 9.14409e-015 -7.55382e-015
rhumerus -84.6408 6.79201 -78.6132
rradius 79.6138
rwrist -15.3862
rhand -31.4618 12.868
rfingers 7.12502
rthumb -4.72905 -17.0593
lclavicle 9.14409e-015 -7.55382e-015
lhumerus -4.34645 -19.0094 88.9816
lradius 140.925
lwrist 25.5857
lhand -22.1677 -13.8167
lfingers 7.12502
lthumb 4.24683 16.1207
rfemur -83.7997 -6.4711 15.2517
rtibia 74.4868
rfoot -16.0139 -4.36528
rtoes -35.702
lfemur 1.86403 -10.1242 -28.3544
ltibia 32.5699
lfoot 12.7014 -9.59961
ltoes -10.1337
37
root 1.74831 15.3811 19.8911 -155.346 0.0509352 -187.29
lowerback 18.0019 -2.1968 -4.18503
upperback -0.980293 -3.80619 0.904884
thorax -10.8769 -1.55698 4.40024
lowerneck -20.646 -1.15879 -5.04521
upperneck -2.49764 0.54547 0.851143
head 2.78532 0.72943 1.25852
rclavicle 3.77691e-015 1.15295e-014
rhumerus -84.4181 6.43638 -77.977
rradius 79.6848
rwrist -15.4405
rhand -31.4386 12.6357
rfingers 7.12502
rthumb -4.70667 -17.292
lclavicle 3.77691e-015 1.15295e-014
lhumerus -5.06888 -18.7375 88.6132
lradius 141.875
lwrist 25.0699
lhand -21.9264 -14.037
lfingers 7.12502
lthumb 4.47983 15.8956
rfemur -83.5779 -6.15062 15.618
rtibia 72.2308
rfoot -15.6019 -3.59102
rtoes -37.5549
lfemur 3.83308 -10.8852 -29.5198
ltibia 31.0307
lfoot 21.4956 -8.78338
ltoes -5.08664
38
root 1.7698 15.4191 19.2268 -155.632 0.986785 -187.424
lowerback 18.0015 -1.98274 -4.47552
upperback -0.949829 -3.5988 0.803644
thorax -10.8533 -1.44878 4.39899
lowerneck -20.7629 -1.05832 -5.09764
upperneck -2.36315 0.700686 0.659215
head 2.84892 0.792404 1.21949
rclavicle 2.24627e-014 -2.0276e-014
rhumerus -83.741 5.9903 -77.4652
rradius 79.5448
rwrist -15.474
rhand -31.4204 12.3678
rfingers 7.12502
rthumb -4.6891 -17.5603
lclavicle 2.24627e-014 -2.0276e-014
lhumerus -6.25632 -18.5493 88.4864
lradius 142.166
lwrist 24.1117
lhand -21.7128 -14.1274
lfingers 7.12502
lthumb 4.68613 15.8007
rfemur -83.2405 -5.99449 16.0651
rtibia 70.3523
rfoot -15.0997 -2.99591
rtoes -38.4522
lfemur 5.12192 -11.3837 -30.7011
ltibia 30.4211
lfoot 28.4193 -8.50131
ltoes 1.56716
